solid CATIA STL
  facet normal  0.000000e+000  -0.000000e+000  1.000000e+000
    outer loop
      vertex -9.425080e-001  7.440543e+000  1.000000e+001
      vertex  7.050977e-001  2.915962e+000  1.000000e+001
      vertex  2.379160e+000  7.112637e+000  1.000000e+001
    endloop
  endfacet
  facet normal  0.000000e+000  0.000000e+000  1.000000e+000
    outer loop
      vertex  4.077501e+000 -6.294759e+000  1.000000e+001
      vertex  6.404895e+000 -3.902220e+000  1.000000e+001
      vertex  9.425080e-001 -7.440543e+000  1.000000e+001
    endloop
  endfacet
  facet normal  0.000000e+000  0.000000e+000  1.000000e+000
    outer loop
      vertex  9.425080e-001 -7.440543e+000  1.000000e+001
      vertex  6.404895e+000 -3.902220e+000  1.000000e+001
      vertex  1.128051e+000 -2.779838e+000  1.000000e+001
    endloop
  endfacet
  facet normal  0.000000e+000  0.000000e+000  9.999999e-001
    outer loop
      vertex  9.425080e-001 -7.440543e+000  1.000000e+001
      vertex  1.128051e+000 -2.779838e+000  1.000000e+001
      vertex -2.379160e+000 -7.112637e+000  1.000000e+001
    endloop
  endfacet
  facet normal  0.000000e+000  0.000000e+000  1.000000e+000
    outer loop
      vertex -2.379160e+000 -7.112637e+000  1.000000e+001
      vertex  1.128051e+000 -2.779838e+000  1.000000e+001
      vertex -8.860115e-001 -2.866179e+000  1.000000e+001
    endloop
  endfacet
  facet normal  0.000000e+000  0.000000e+000  1.000000e+000
    outer loop
      vertex -2.379160e+000 -7.112637e+000  1.000000e+001
      vertex -8.860115e-001 -2.866179e+000  1.000000e+001
      vertex -5.229607e+000 -5.375985e+000  1.000000e+001
    endloop
  endfacet
  facet normal  0.000000e+000  -0.000000e+000  1.000000e+000
    outer loop
      vertex -5.229607e+000 -5.375985e+000  1.000000e+001
      vertex -8.860115e-001 -2.866179e+000  1.000000e+001
      vertex -7.044265e+000 -2.574554e+000  1.000000e+001
    endloop
  endfacet
  facet normal  0.000000e+000  0.000000e+000  1.000000e+000
    outer loop
      vertex  7.050977e-001  2.915962e+000  1.000000e+001
      vertex -9.425080e-001  7.440543e+000  1.000000e+001
      vertex -1.095828e+000  2.792698e+000  1.000000e+001
    endloop
  endfacet
  facet normal  0.000000e+000  -0.000000e+000  1.000000e+000
    outer loop
      vertex -1.095828e+000  2.792698e+000  1.000000e+001
      vertex -9.425080e-001  7.440543e+000  1.000000e+001
      vertex -4.077501e+000  6.294759e+000  1.000000e+001
    endloop
  endfacet
  facet normal  0.000000e+000  0.000000e+000  9.999999e-001
    outer loop
      vertex -1.095828e+000  2.792698e+000  1.000000e+001
      vertex -4.077501e+000  6.294759e+000  1.000000e+001
      vertex -6.404895e+000  3.902220e+000  1.000000e+001
    endloop
  endfacet
  facet normal  0.000000e+000  0.000000e+000  1.000000e+000
    outer loop
      vertex -1.095828e+000  2.792698e+000  1.000000e+001
      vertex -6.404895e+000  3.902220e+000  1.000000e+001
      vertex -2.500000e+000  1.658312e+000  1.000000e+001
    endloop
  endfacet
  facet normal  0.000000e+000  0.000000e+000  9.999999e-001
    outer loop
      vertex -2.500000e+000  1.658312e+000  1.000000e+001
      vertex -6.404895e+000  3.902220e+000  1.000000e+001
      vertex -7.463721e+000  7.367992e-001  1.000000e+001
    endloop
  endfacet
  facet normal  -0.000000e+000  0.000000e+000  1.000000e+000
    outer loop
      vertex -2.500000e+000  1.658312e+000  1.000000e+001
      vertex -7.463721e+000  7.367992e-001  1.000000e+001
      vertex -2.500000e+000 -1.658312e+000  1.000000e+001
    endloop
  endfacet
  facet normal  0.000000e+000  0.000000e+000  9.999999e-001
    outer loop
      vertex -2.500000e+000 -1.658312e+000  1.000000e+001
      vertex -7.463721e+000  7.367992e-001  1.000000e+001
      vertex -7.044265e+000 -2.574554e+000  1.000000e+001
    endloop
  endfacet
  facet normal  -0.000000e+000  0.000000e+000  1.000000e+000
    outer loop
      vertex -2.500000e+000 -1.658312e+000  1.000000e+001
      vertex -7.044265e+000 -2.574554e+000  1.000000e+001
      vertex -8.860115e-001 -2.866179e+000  1.000000e+001
    endloop
  endfacet
  facet normal  0.000000e+000  0.000000e+000  1.000000e+000
    outer loop
      vertex  5.229607e+000  5.375985e+000  1.000000e+001
      vertex  2.379160e+000  7.112637e+000  1.000000e+001
      vertex  7.044265e+000  2.574554e+000  1.000000e+001
    endloop
  endfacet
  facet normal  0.000000e+000  0.000000e+000  9.999999e-001
    outer loop
      vertex  7.044265e+000  2.574554e+000  1.000000e+001
      vertex  2.379160e+000  7.112637e+000  1.000000e+001
      vertex  7.050977e-001  2.915962e+000  1.000000e+001
    endloop
  endfacet
  facet normal  0.000000e+000  0.000000e+000  1.000000e+000
    outer loop
      vertex  7.044265e+000  2.574554e+000  1.000000e+001
      vertex  7.050977e-001  2.915962e+000  1.000000e+001
      vertex  7.463721e+000 -7.367992e-001  1.000000e+001
    endloop
  endfacet
  facet normal  0.000000e+000  0.000000e+000  1.000000e+000
    outer loop
      vertex  7.463721e+000 -7.367992e-001  1.000000e+001
      vertex  7.050977e-001  2.915962e+000  1.000000e+001
      vertex  2.250737e+000  1.983478e+000  1.000000e+001
    endloop
  endfacet
  facet normal  0.000000e+000  0.000000e+000  1.000000e+000
    outer loop
      vertex  7.463721e+000 -7.367992e-001  1.000000e+001
      vertex  2.250737e+000  1.983478e+000  1.000000e+001
      vertex  2.981477e+000  3.328575e-001  1.000000e+001
    endloop
  endfacet
  facet normal  0.000000e+000  0.000000e+000  1.000000e+000
    outer loop
      vertex  1.128051e+000 -2.779838e+000  1.000000e+001
      vertex  6.404895e+000 -3.902220e+000  1.000000e+001
      vertex  2.632748e+000 -1.438277e+000  1.000000e+001
    endloop
  endfacet
  facet normal  -0.000000e+000  0.000000e+000  1.000000e+000
    outer loop
      vertex  2.632748e+000 -1.438277e+000  1.000000e+001
      vertex  6.404895e+000 -3.902220e+000  1.000000e+001
      vertex  7.463721e+000 -7.367992e-001  1.000000e+001
    endloop
  endfacet
  facet normal  0.000000e+000  0.000000e+000  1.000000e+000
    outer loop
      vertex  2.632748e+000 -1.438277e+000  1.000000e+001
      vertex  7.463721e+000 -7.367992e-001  1.000000e+001
      vertex  2.981477e+000  3.328575e-001  1.000000e+001
    endloop
  endfacet
  facet normal  1.000000e+000  -0.000000e+000  0.000000e+000
    outer loop
      vertex -2.500000e+000  1.658312e+000  1.000000e+001
      vertex -2.500000e+000 -1.658312e+000  1.000000e+001
      vertex -2.500000e+000  1.658312e+000  2.000000e+000
    endloop
  endfacet
  facet normal  1.000000e+000  0.000000e+000  0.000000e+000
    outer loop
      vertex -2.500000e+000  1.658312e+000  2.000000e+000
      vertex -2.500000e+000 -1.658312e+000  1.000000e+001
      vertex -2.500000e+000 -1.658312e+000  2.000000e+000
    endloop
  endfacet
  facet normal  -0.000000e+000  0.000000e+000  1.000000e+000
    outer loop
      vertex  2.250737e+000  1.983478e+000  2.000000e+000
      vertex -2.500000e+000  1.658312e+000  2.000000e+000
      vertex  2.981477e+000  3.328575e-001  2.000000e+000
    endloop
  endfacet
  facet normal  0.000000e+000  0.000000e+000  1.000000e+000
    outer loop
      vertex  2.981477e+000  3.328575e-001  2.000000e+000
      vertex -2.500000e+000  1.658312e+000  2.000000e+000
      vertex -2.500000e+000 -1.658312e+000  2.000000e+000
    endloop
  endfacet
  facet normal  0.000000e+000  0.000000e+000  1.000000e+000
    outer loop
      vertex  2.981477e+000  3.328575e-001  2.000000e+000
      vertex -2.500000e+000 -1.658312e+000  2.000000e+000
      vertex  2.632748e+000 -1.438277e+000  2.000000e+000
    endloop
  endfacet
  facet normal  0.000000e+000  0.000000e+000  1.000000e+000
    outer loop
      vertex  2.632748e+000 -1.438277e+000  2.000000e+000
      vertex -2.500000e+000 -1.658312e+000  2.000000e+000
      vertex -8.860115e-001 -2.866179e+000  2.000000e+000
    endloop
  endfacet
  facet normal  0.000000e+000  0.000000e+000  1.000000e+000
    outer loop
      vertex  2.632748e+000 -1.438277e+000  2.000000e+000
      vertex -8.860115e-001 -2.866179e+000  2.000000e+000
      vertex  1.128051e+000 -2.779838e+000  2.000000e+000
    endloop
  endfacet
  facet normal  0.000000e+000  0.000000e+000  9.999999e-001
    outer loop
      vertex -1.095828e+000  2.792698e+000  2.000000e+000
      vertex -2.500000e+000  1.658312e+000  2.000000e+000
      vertex  7.050977e-001  2.915962e+000  2.000000e+000
    endloop
  endfacet
  facet normal  0.000000e+000  0.000000e+000  1.000000e+000
    outer loop
      vertex  7.050977e-001  2.915962e+000  2.000000e+000
      vertex -2.500000e+000  1.658312e+000  2.000000e+000
      vertex  2.250737e+000  1.983478e+000  2.000000e+000
    endloop
  endfacet
  facet normal -9.144005e-001 -4.048110e-001  0.000000e+000
    outer loop
      vertex  2.250737e+000  1.983478e+000  1.000000e+001
      vertex  2.981477e+000  3.328575e-001  2.000000e+000
      vertex  2.981477e+000  3.328575e-001  1.000000e+001
    endloop
  endfacet
  facet normal -9.811620e-001  1.931870e-001  0.000000e+000
    outer loop
      vertex  2.981477e+000  3.328575e-001  1.000000e+001
      vertex  2.981477e+000  3.328575e-001  2.000000e+000
      vertex  2.632748e+000 -1.438277e+000  2.000000e+000
    endloop
  endfacet
  facet normal -9.811620e-001  1.931870e-001  0.000000e+000
    outer loop
      vertex  2.981477e+000  3.328575e-001  1.000000e+001
      vertex  2.632748e+000 -1.438277e+000  2.000000e+000
      vertex  2.632748e+000 -1.438277e+000  1.000000e+001
    endloop
  endfacet
  facet normal -9.144005e-001 -4.048110e-001  -0.000000e+000
    outer loop
      vertex  2.981477e+000  3.328575e-001  2.000000e+000
      vertex  2.250737e+000  1.983478e+000  1.000000e+001
      vertex  2.250737e+000  1.983478e+000  2.000000e+000
    endloop
  endfacet
  facet normal -5.165722e-001 -8.562436e-001  0.000000e+000
    outer loop
      vertex  2.250737e+000  1.983478e+000  2.000000e+000
      vertex  2.250737e+000  1.983478e+000  1.000000e+001
      vertex  7.050977e-001  2.915962e+000  1.000000e+001
    endloop
  endfacet
  facet normal -5.165722e-001 -8.562436e-001  -0.000000e+000
    outer loop
      vertex  2.250737e+000  1.983478e+000  2.000000e+000
      vertex  7.050977e-001  2.915962e+000  1.000000e+001
      vertex  7.050977e-001  2.915962e+000  2.000000e+000
    endloop
  endfacet
  facet normal  6.828547e-002 -9.976659e-001  0.000000e+000
    outer loop
      vertex  7.050977e-001  2.915962e+000  2.000000e+000
      vertex  7.050977e-001  2.915962e+000  1.000000e+001
      vertex -1.095828e+000  2.792698e+000  1.000000e+001
    endloop
  endfacet
  facet normal  6.828547e-002 -9.976659e-001  0.000000e+000
    outer loop
      vertex  7.050977e-001  2.915962e+000  2.000000e+000
      vertex -1.095828e+000  2.792698e+000  1.000000e+001
      vertex -1.095828e+000  2.792698e+000  2.000000e+000
    endloop
  endfacet
  facet normal  6.284198e-001 -7.778744e-001  0.000000e+000
    outer loop
      vertex -1.095828e+000  2.792698e+000  2.000000e+000
      vertex -1.095828e+000  2.792698e+000  1.000000e+001
      vertex -2.500000e+000  1.658312e+000  1.000000e+001
    endloop
  endfacet
  facet normal  6.284198e-001 -7.778744e-001  0.000000e+000
    outer loop
      vertex -1.095828e+000  2.792698e+000  2.000000e+000
      vertex -2.500000e+000  1.658312e+000  1.000000e+001
      vertex -2.500000e+000  1.658312e+000  2.000000e+000
    endloop
  endfacet
  facet normal  5.991665e-001  8.006244e-001  -0.000000e+000
    outer loop
      vertex -8.860115e-001 -2.866179e+000  1.000000e+001
      vertex -2.500000e+000 -1.658312e+000  2.000000e+000
      vertex -2.500000e+000 -1.658312e+000  1.000000e+001
    endloop
  endfacet
  facet normal  5.991665e-001  8.006244e-001  0.000000e+000
    outer loop
      vertex -2.500000e+000 -1.658312e+000  2.000000e+000
      vertex -8.860115e-001 -2.866179e+000  1.000000e+001
      vertex -8.860115e-001 -2.866179e+000  2.000000e+000
    endloop
  endfacet
  facet normal -4.282970e-002  9.990824e-001  0.000000e+000
    outer loop
      vertex -8.860115e-001 -2.866179e+000  2.000000e+000
      vertex -8.860115e-001 -2.866179e+000  1.000000e+001
      vertex  1.128051e+000 -2.779838e+000  1.000000e+001
    endloop
  endfacet
  facet normal -4.282970e-002  9.990824e-001  0.000000e+000
    outer loop
      vertex -8.860115e-001 -2.866179e+000  2.000000e+000
      vertex  1.128051e+000 -2.779838e+000  1.000000e+001
      vertex  1.128051e+000 -2.779838e+000  2.000000e+000
    endloop
  endfacet
  facet normal -6.654863e-001  7.464101e-001  0.000000e+000
    outer loop
      vertex  1.128051e+000 -2.779838e+000  2.000000e+000
      vertex  1.128051e+000 -2.779838e+000  1.000000e+001
      vertex  2.632748e+000 -1.438277e+000  1.000000e+001
    endloop
  endfacet
  facet normal -6.654863e-001  7.464101e-001  0.000000e+000
    outer loop
      vertex  1.128051e+000 -2.779838e+000  2.000000e+000
      vertex  2.632748e+000 -1.438277e+000  1.000000e+001
      vertex  2.632748e+000 -1.438277e+000  2.000000e+000
    endloop
  endfacet
  facet normal  0.000000e+000 -1.000000e+000  0.000000e+000
    outer loop
      vertex  5.238523e+000 -1.125833e+001  7.258801e+000
      vertex -6.500000e+000 -1.125833e+001  6.000000e+000
      vertex  6.500000e+000 -1.125833e+001  6.000000e+000
    endloop
  endfacet
  facet normal  -0.000000e+000 -1.000000e+000  0.000000e+000
    outer loop
      vertex  6.500000e+000 -1.125833e+001  6.000000e+000
      vertex -6.500000e+000 -1.125833e+001  6.000000e+000
      vertex -6.500000e+000 -1.125833e+001 -8.212781e-015
    endloop
  endfacet
  facet normal  0.000000e+000 -1.000000e+000  0.000000e+000
    outer loop
      vertex  6.500000e+000 -1.125833e+001  6.000000e+000
      vertex -6.500000e+000 -1.125833e+001 -8.212781e-015
      vertex  6.500000e+000 -1.125833e+001 -1.609823e-015
    endloop
  endfacet
  facet normal  0.000000e+000 -9.999999e-001  0.000000e+000
    outer loop
      vertex -6.500000e+000 -1.125833e+001  6.000000e+000
      vertex  5.238523e+000 -1.125833e+001  7.258801e+000
      vertex -5.644590e+000 -1.125833e+001  6.952425e+000
    endloop
  endfacet
  facet normal  0.000000e+000 -1.000000e+000  0.000000e+000
    outer loop
      vertex -5.644590e+000 -1.125833e+001  6.952425e+000
      vertex  5.238523e+000 -1.125833e+001  7.258801e+000
      vertex  3.322567e+000 -1.125833e+001  8.150547e+000
    endloop
  endfacet
  facet normal  0.000000e+000 -1.000000e+000  0.000000e+000
    outer loop
      vertex -5.644590e+000 -1.125833e+001  6.952425e+000
      vertex  3.322567e+000 -1.125833e+001  8.150547e+000
      vertex -3.705578e+000 -1.125833e+001  8.023847e+000
    endloop
  endfacet
  facet normal  0.000000e+000 -1.000000e+000  0.000000e+000
    outer loop
      vertex -3.705578e+000 -1.125833e+001  8.023847e+000
      vertex  3.322567e+000 -1.125833e+001  8.150547e+000
      vertex  9.431129e-001 -1.125833e+001  8.577631e+000
    endloop
  endfacet
  facet normal  0.000000e+000 -1.000000e+000  0.000000e+000
    outer loop
      vertex -3.705578e+000 -1.125833e+001  8.023847e+000
      vertex  9.431129e-001 -1.125833e+001  8.577631e+000
      vertex -1.224902e+000 -1.125833e+001  8.553954e+000
    endloop
  endfacet
  facet normal  8.660253e-001  4.999999e-001 -1.677135e-007
    outer loop
      vertex  7.130739e+000  1.016586e+001  7.258801e+000
      vertex  1.300000e+001  7.764611e-015  6.000000e+000
      vertex  6.500000e+000  1.125833e+001  6.000000e+000
    endloop
  endfacet
  facet normal  8.660254e-001  5.000000e-001  0.000000e+000
    outer loop
      vertex  6.500000e+000  1.125833e+001  6.000000e+000
      vertex  1.300000e+001  7.764611e-015  6.000000e+000
      vertex  1.300000e+001  9.908690e-015  5.714780e-015
    endloop
  endfacet
  facet normal  8.660254e-001  5.000000e-001  0.000000e+000
    outer loop
      vertex  6.500000e+000  1.125833e+001  6.000000e+000
      vertex  1.300000e+001  9.908690e-015  5.714780e-015
      vertex  6.500000e+000  1.125833e+001  6.436425e-015
    endloop
  endfacet
  facet normal  8.660253e-001  4.999999e-001 -4.592021e-008
    outer loop
      vertex  1.300000e+001  7.764611e-015  6.000000e+000
      vertex  7.130739e+000  1.016586e+001  7.258801e+000
      vertex  1.257230e+001  7.408063e-001  6.952425e+000
    endloop
  endfacet
  facet normal  8.660254e-001  5.000000e-001  1.213469e-007
    outer loop
      vertex  1.257230e+001  7.408063e-001  6.952425e+000
      vertex  7.130739e+000  1.016586e+001  7.258801e+000
      vertex  8.088717e+000  8.506593e+000  8.150547e+000
    endloop
  endfacet
  facet normal  8.660254e-001  5.000000e-001  3.547522e-007
    outer loop
      vertex  1.257230e+001  7.408063e-001  6.952425e+000
      vertex  8.088717e+000  8.506593e+000  8.150547e+000
      vertex  1.160279e+001  2.420040e+000  8.023847e+000
    endloop
  endfacet
  facet normal  8.660254e-001  4.999999e-001  4.847695e-007
    outer loop
      vertex  1.160279e+001  2.420040e+000  8.023847e+000
      vertex  8.088717e+000  8.506593e+000  8.150547e+000
      vertex  9.278443e+000  6.445925e+000  8.577631e+000
    endloop
  endfacet
  facet normal  8.660253e-001  5.000002e-001 -2.070510e-006
    outer loop
      vertex  1.160279e+001  2.420040e+000  8.023847e+000
      vertex  9.278443e+000  6.445925e+000  8.577631e+000
      vertex  1.036245e+001  4.568368e+000  8.553954e+000
    endloop
  endfacet
  facet normal  8.660254e-001 -4.999999e-001 -1.746179e-007
    outer loop
      vertex  9.617134e+000 -5.859296e+000  8.608993e+000
      vertex  8.088717e+000 -8.506593e+000  8.150547e+000
      vertex  1.141128e+001 -2.751738e+000  8.150547e+000
    endloop
  endfacet
  facet normal  8.660254e-001 -5.000000e-001  1.149959e-007
    outer loop
      vertex  1.141128e+001 -2.751738e+000  8.150547e+000
      vertex  8.088717e+000 -8.506593e+000  8.150547e+000
      vertex  7.130739e+000 -1.016586e+001  7.258801e+000
    endloop
  endfacet
  facet normal  8.660254e-001 -5.000000e-001  3.054621e-007
    outer loop
      vertex  1.141128e+001 -2.751738e+000  8.150547e+000
      vertex  7.130739e+000 -1.016586e+001  7.258801e+000
      vertex  1.236926e+001 -1.092471e+000  7.258801e+000
    endloop
  endfacet
  facet normal  8.660254e-001 -4.999999e-001 -1.686014e-007
    outer loop
      vertex  1.236926e+001 -1.092471e+000  7.258801e+000
      vertex  7.130739e+000 -1.016586e+001  7.258801e+000
      vertex  6.500000e+000 -1.125833e+001  6.000000e+000
    endloop
  endfacet
  facet normal  8.660253e-001 -4.999999e-001 -1.603391e-007
    outer loop
      vertex  1.236926e+001 -1.092471e+000  7.258801e+000
      vertex  6.500000e+000 -1.125833e+001  6.000000e+000
      vertex  1.300000e+001  7.764611e-015  6.000000e+000
    endloop
  endfacet
  facet normal  8.660254e-001 -5.000000e-001  0.000000e+000
    outer loop
      vertex  1.300000e+001  7.764611e-015  6.000000e+000
      vertex  6.500000e+000 -1.125833e+001  6.000000e+000
      vertex  6.500000e+000 -1.125833e+001 -1.609823e-015
    endloop
  endfacet
  facet normal  8.660254e-001 -5.000000e-001  0.000000e+000
    outer loop
      vertex  1.300000e+001  7.764611e-015  6.000000e+000
      vertex  6.500000e+000 -1.125833e+001 -1.609823e-015
      vertex  1.300000e+001  9.908690e-015  5.714780e-015
    endloop
  endfacet
  facet normal  0.000000e+000  1.000000e+000  0.000000e+000
    outer loop
      vertex -5.238523e+000  1.125833e+001  7.258801e+000
      vertex  6.500000e+000  1.125833e+001  6.000000e+000
      vertex -6.500000e+000  1.125833e+001  6.000000e+000
    endloop
  endfacet
  facet normal  -0.000000e+000  1.000000e+000  0.000000e+000
    outer loop
      vertex -6.500000e+000  1.125833e+001  6.000000e+000
      vertex  6.500000e+000  1.125833e+001  6.000000e+000
      vertex  6.500000e+000  1.125833e+001  6.436425e-015
    endloop
  endfacet
  facet normal  0.000000e+000  1.000000e+000  0.000000e+000
    outer loop
      vertex -6.500000e+000  1.125833e+001  6.000000e+000
      vertex  6.500000e+000  1.125833e+001  6.436425e-015
      vertex -6.500000e+000  1.125833e+001 -1.665335e-016
    endloop
  endfacet
  facet normal  0.000000e+000  9.999999e-001  0.000000e+000
    outer loop
      vertex  6.500000e+000  1.125833e+001  6.000000e+000
      vertex -5.238523e+000  1.125833e+001  7.258801e+000
      vertex  5.644590e+000  1.125833e+001  6.952425e+000
    endloop
  endfacet
  facet normal  0.000000e+000  1.000000e+000  0.000000e+000
    outer loop
      vertex  5.644590e+000  1.125833e+001  6.952425e+000
      vertex -5.238523e+000  1.125833e+001  7.258801e+000
      vertex -3.322567e+000  1.125833e+001  8.150547e+000
    endloop
  endfacet
  facet normal  0.000000e+000  1.000000e+000  0.000000e+000
    outer loop
      vertex  5.644590e+000  1.125833e+001  6.952425e+000
      vertex -3.322567e+000  1.125833e+001  8.150547e+000
      vertex  3.705578e+000  1.125833e+001  8.023847e+000
    endloop
  endfacet
  facet normal  0.000000e+000  1.000000e+000  0.000000e+000
    outer loop
      vertex  3.705578e+000  1.125833e+001  8.023847e+000
      vertex -3.322567e+000  1.125833e+001  8.150547e+000
      vertex -9.431129e-001  1.125833e+001  8.577631e+000
    endloop
  endfacet
  facet normal  0.000000e+000  1.000000e+000  0.000000e+000
    outer loop
      vertex  3.705578e+000  1.125833e+001  8.023847e+000
      vertex -9.431129e-001  1.125833e+001  8.577631e+000
      vertex  1.224902e+000  1.125833e+001  8.553954e+000
    endloop
  endfacet
  facet normal -8.660254e-001  4.999999e-001 -1.746179e-007
    outer loop
      vertex -9.617134e+000  5.859296e+000  8.608993e+000
      vertex -8.088717e+000  8.506593e+000  8.150547e+000
      vertex -1.141128e+001  2.751738e+000  8.150547e+000
    endloop
  endfacet
  facet normal -8.660254e-001  5.000000e-001  1.149959e-007
    outer loop
      vertex -1.141128e+001  2.751738e+000  8.150547e+000
      vertex -8.088717e+000  8.506593e+000  8.150547e+000
      vertex -7.130739e+000  1.016586e+001  7.258801e+000
    endloop
  endfacet
  facet normal -8.660254e-001  5.000000e-001  3.054621e-007
    outer loop
      vertex -1.141128e+001  2.751738e+000  8.150547e+000
      vertex -7.130739e+000  1.016586e+001  7.258801e+000
      vertex -1.236926e+001  1.092471e+000  7.258801e+000
    endloop
  endfacet
  facet normal -8.660254e-001  4.999999e-001 -1.686014e-007
    outer loop
      vertex -1.236926e+001  1.092471e+000  7.258801e+000
      vertex -7.130739e+000  1.016586e+001  7.258801e+000
      vertex -6.500000e+000  1.125833e+001  6.000000e+000
    endloop
  endfacet
  facet normal -8.660253e-001  4.999999e-001 -1.603391e-007
    outer loop
      vertex -1.236926e+001  1.092471e+000  7.258801e+000
      vertex -6.500000e+000  1.125833e+001  6.000000e+000
      vertex -1.300000e+001  1.254058e-014  6.000000e+000
    endloop
  endfacet
  facet normal -8.660254e-001  5.000000e-001  0.000000e+000
    outer loop
      vertex -1.300000e+001  1.254058e-014  6.000000e+000
      vertex -6.500000e+000  1.125833e+001  6.000000e+000
      vertex -6.500000e+000  1.125833e+001 -1.665335e-016
    endloop
  endfacet
  facet normal -8.660254e-001  5.000000e-001  0.000000e+000
    outer loop
      vertex -1.300000e+001  1.254058e-014  6.000000e+000
      vertex -6.500000e+000  1.125833e+001 -1.665335e-016
      vertex -1.300000e+001  8.911495e-015 -7.491137e-015
    endloop
  endfacet
  facet normal -8.660253e-001 -4.999999e-001 -1.677135e-007
    outer loop
      vertex -7.130739e+000 -1.016586e+001  7.258801e+000
      vertex -1.300000e+001  1.254058e-014  6.000000e+000
      vertex -6.500000e+000 -1.125833e+001  6.000000e+000
    endloop
  endfacet
  facet normal -8.660254e-001 -5.000000e-001  0.000000e+000
    outer loop
      vertex -6.500000e+000 -1.125833e+001  6.000000e+000
      vertex -1.300000e+001  1.254058e-014  6.000000e+000
      vertex -1.300000e+001  8.911495e-015 -7.491137e-015
    endloop
  endfacet
  facet normal -8.660254e-001 -5.000000e-001  0.000000e+000
    outer loop
      vertex -6.500000e+000 -1.125833e+001  6.000000e+000
      vertex -1.300000e+001  8.911495e-015 -7.491137e-015
      vertex -6.500000e+000 -1.125833e+001 -8.212781e-015
    endloop
  endfacet
  facet normal -8.660253e-001 -4.999999e-001 -4.592021e-008
    outer loop
      vertex -1.300000e+001  1.254058e-014  6.000000e+000
      vertex -7.130739e+000 -1.016586e+001  7.258801e+000
      vertex -1.257230e+001 -7.408063e-001  6.952425e+000
    endloop
  endfacet
  facet normal -8.660254e-001 -5.000000e-001  1.213469e-007
    outer loop
      vertex -1.257230e+001 -7.408063e-001  6.952425e+000
      vertex -7.130739e+000 -1.016586e+001  7.258801e+000
      vertex -8.088717e+000 -8.506593e+000  8.150547e+000
    endloop
  endfacet
  facet normal -8.660254e-001 -5.000000e-001  3.547522e-007
    outer loop
      vertex -1.257230e+001 -7.408063e-001  6.952425e+000
      vertex -8.088717e+000 -8.506593e+000  8.150547e+000
      vertex -1.160279e+001 -2.420040e+000  8.023847e+000
    endloop
  endfacet
  facet normal -8.660254e-001 -4.999999e-001  4.847695e-007
    outer loop
      vertex -1.160279e+001 -2.420040e+000  8.023847e+000
      vertex -8.088717e+000 -8.506593e+000  8.150547e+000
      vertex -9.278443e+000 -6.445925e+000  8.577631e+000
    endloop
  endfacet
  facet normal -8.660253e-001 -5.000002e-001 -2.070510e-006
    outer loop
      vertex -1.160279e+001 -2.420040e+000  8.023847e+000
      vertex -9.278443e+000 -6.445925e+000  8.577631e+000
      vertex -1.036245e+001 -4.568368e+000  8.553954e+000
    endloop
  endfacet
  facet normal  1.224046e-001 -1.372208e-001  9.829484e-001
    outer loop
      vertex  6.404895e+000 -3.902220e+000  1.000000e+001
      vertex  6.418413e+000 -7.475835e+000  9.499435e+000
      vertex  8.117319e+000 -4.945525e+000  9.641109e+000
    endloop
  endfacet
  facet normal  1.406470e-001 -1.368174e-001  9.805608e-001
    outer loop
      vertex  6.404895e+000 -3.902220e+000  1.000000e+001
      vertex  4.077501e+000 -6.294759e+000  1.000000e+001
      vertex  6.418413e+000 -7.475835e+000  9.499435e+000
    endloop
  endfacet
  facet normal -1.860814e-001  6.224379e-002  9.805608e-001
    outer loop
      vertex -6.404895e+000  3.902220e+000  1.000000e+001
      vertex -9.586791e+000  2.275430e+000  9.499435e+000
      vertex -7.463721e+000  7.367992e-001  1.000000e+001
    endloop
  endfacet
  facet normal -1.780743e-001  4.584773e-002  9.829484e-001
    outer loop
      vertex -6.404895e+000  3.902220e+000  1.000000e+001
      vertex -8.117319e+000  4.945525e+000  9.641109e+000
      vertex -9.586791e+000  2.275430e+000  9.499435e+000
    endloop
  endfacet
  facet normal -5.912264e-001  4.499530e-002  8.052496e-001
    outer loop
      vertex -1.175997e+001 -9.560784e-001  8.084424e+000
      vertex -9.820726e+000 -7.984191e-001  9.499435e+000
      vertex -9.586791e+000  2.275430e+000  9.499435e+000
    endloop
  endfacet
  facet normal -1.924593e-001 -2.437918e-002  9.810020e-001
    outer loop
      vertex -9.820726e+000 -7.984191e-001  9.499435e+000
      vertex -7.044265e+000 -2.574554e+000  1.000000e+001
      vertex -7.463721e+000  7.367992e-001  1.000000e+001
    endloop
  endfacet
  facet normal -2.180418e-001  1.659407e-002  9.757984e-001
    outer loop
      vertex -9.820726e+000 -7.984191e-001  9.499435e+000
      vertex -7.463721e+000  7.367992e-001  1.000000e+001
      vertex -9.586791e+000  2.275430e+000  9.499435e+000
    endloop
  endfacet
  facet normal -4.568449e-001 -2.815795e-001  8.438044e-001
    outer loop
      vertex -1.036245e+001 -4.568368e+000  8.553954e+000
      vertex -7.475835e+000 -6.418413e+000  9.499435e+000
      vertex -9.093341e+000 -3.794113e+000  9.499435e+000
    endloop
  endfacet
  facet normal -4.110672e-001 -4.064460e-001  8.159813e-001
    outer loop
      vertex -8.088717e+000 -8.506593e+000  8.150547e+000
      vertex -7.475835e+000 -6.418413e+000  9.499435e+000
      vertex -9.278443e+000 -6.445925e+000  8.577631e+000
    endloop
  endfacet
  facet normal -1.678773e-001 -1.087444e-001  9.797917e-001
    outer loop
      vertex -7.475835e+000 -6.418413e+000  9.499435e+000
      vertex -5.229607e+000 -5.375985e+000  1.000000e+001
      vertex -7.044265e+000 -2.574554e+000  1.000000e+001
    endloop
  endfacet
  facet normal -1.749114e-001 -1.078078e-001  9.786642e-001
    outer loop
      vertex -9.093341e+000 -3.794113e+000  9.499435e+000
      vertex -7.475835e+000 -6.418413e+000  9.499435e+000
      vertex -7.044265e+000 -2.574554e+000  1.000000e+001
    endloop
  endfacet
  facet normal -2.084729e-001 -5.061939e-002  9.767174e-001
    outer loop
      vertex -9.093341e+000 -3.794113e+000  9.499435e+000
      vertex -7.044265e+000 -2.574554e+000  1.000000e+001
      vertex -9.820726e+000 -7.984191e-001  9.499435e+000
    endloop
  endfacet
  facet normal -1.005566e-001 -1.650483e-001  9.811460e-001
    outer loop
      vertex -5.126544e+000 -8.414433e+000  9.499435e+000
      vertex -2.379160e+000 -7.112637e+000  1.000000e+001
      vertex -5.229607e+000 -5.375985e+000  1.000000e+001
    endloop
  endfacet
  facet normal -1.406810e-001 -1.655798e-001  9.761108e-001
    outer loop
      vertex -5.126544e+000 -8.414433e+000  9.499435e+000
      vertex -5.229607e+000 -5.375985e+000  1.000000e+001
      vertex -7.475835e+000 -6.418413e+000  9.499435e+000
    endloop
  endfacet
  facet normal -2.338673e-001 -5.232840e-001  8.194388e-001
    outer loop
      vertex -2.275430e+000 -9.586791e+000  9.499435e+000
      vertex -6.138853e+000 -1.007598e+001  8.084424e+000
      vertex -3.705578e+000 -1.125833e+001  8.023847e+000
    endloop
  endfacet
  facet normal -2.019658e-002 -2.045901e-001  9.786393e-001
    outer loop
      vertex  7.984191e-001 -9.820726e+000  9.499435e+000
      vertex  9.425080e-001 -7.440543e+000  1.000000e+001
      vertex -2.379160e+000 -7.112637e+000  1.000000e+001
    endloop
  endfacet
  facet normal -1.513627e-002 -1.988866e-001  9.799057e-001
    outer loop
      vertex -2.275430e+000 -9.586791e+000  9.499435e+000
      vertex  7.984191e-001 -9.820726e+000  9.499435e+000
      vertex -2.379160e+000 -7.112637e+000  1.000000e+001
    endloop
  endfacet
  facet normal -8.262858e-002 -2.009485e-001  9.761108e-001
    outer loop
      vertex -2.275430e+000 -9.586791e+000  9.499435e+000
      vertex -2.379160e+000 -7.112637e+000  1.000000e+001
      vertex -5.126544e+000 -8.414433e+000  9.499435e+000
    endloop
  endfacet
  facet normal  2.658966e-001 -7.764829e-001  5.712908e-001
    outer loop
      vertex  5.238523e+000 -1.125833e+001  7.258801e+000
      vertex  4.543315e+000 -1.088895e+001  8.084424e+000
      vertex  3.322567e+000 -1.125833e+001  8.150547e+000
    endloop
  endfacet
  facet normal  6.659414e-002 -1.822090e-001  9.810020e-001
    outer loop
      vertex  3.794113e+000 -9.093341e+000  9.499435e+000
      vertex  4.077501e+000 -6.294759e+000  1.000000e+001
      vertex  9.425080e-001 -7.440543e+000  1.000000e+001
    endloop
  endfacet
  facet normal  5.061938e-002 -2.084729e-001  9.767173e-001
    outer loop
      vertex  3.794113e+000 -9.093341e+000  9.499435e+000
      vertex  9.425080e-001 -7.440543e+000  1.000000e+001
      vertex  7.984191e-001 -9.820726e+000  9.499435e+000
    endloop
  endfacet
  facet normal  6.012126e-001 -6.188217e-001  5.055721e-001
    outer loop
      vertex  7.685820e+000 -8.952046e+000  8.084424e+000
      vertex  7.130739e+000 -1.016586e+001  7.258801e+000
      vertex  8.088717e+000 -8.506593e+000  8.150547e+000
    endloop
  endfacet
  facet normal  1.147369e-001 -1.861532e-001  9.757984e-001
    outer loop
      vertex  6.418413e+000 -7.475835e+000  9.499435e+000
      vertex  4.077501e+000 -6.294759e+000  1.000000e+001
      vertex  3.794113e+000 -9.093341e+000  9.499435e+000
    endloop
  endfacet
  facet normal -9.033839e-001  2.854124e-002  4.278819e-001
    outer loop
      vertex -1.300000e+001  1.254058e-014  6.000000e+000
      vertex -1.257230e+001 -7.408063e-001  6.952425e+000
      vertex -1.236926e+001  1.092471e+000  7.258801e+000
    endloop
  endfacet
  facet normal -4.387796e-001 -2.424181e-001  8.652779e-001
    outer loop
      vertex -1.036245e+001 -4.568368e+000  8.553954e+000
      vertex -9.278443e+000 -6.445925e+000  8.577631e+000
      vertex -7.475835e+000 -6.418413e+000  9.499435e+000
    endloop
  endfacet
  facet normal -2.254921e-001 -5.483852e-001  8.052496e-001
    outer loop
      vertex -6.138853e+000 -1.007598e+001  8.084424e+000
      vertex -2.275430e+000 -9.586791e+000  9.499435e+000
      vertex -5.126544e+000 -8.414433e+000  9.499435e+000
    endloop
  endfacet
  facet normal  1.635938e-001 -3.774955e-001  9.114462e-001
    outer loop
      vertex  4.543315e+000 -1.088895e+001  8.084424e+000
      vertex  9.431129e-001 -1.125833e+001  8.577631e+000
      vertex  3.322567e+000 -1.125833e+001  8.150547e+000
    endloop
  endfacet
  facet normal -7.599815e-001 -2.437510e-002  6.494875e-001
    outer loop
      vertex -1.257230e+001 -7.408063e-001  6.952425e+000
      vertex -1.160279e+001 -2.420040e+000  8.023847e+000
      vertex -1.236926e+001  1.092471e+000  7.258801e+000
    endloop
  endfacet
  facet normal -9.134252e-001 -1.142355e-001  3.906465e-001
    outer loop
      vertex -1.236926e+001  1.092471e+000  7.258801e+000
      vertex -1.160279e+001 -2.420040e+000  8.023847e+000
      vertex -1.175997e+001 -9.560784e-001  8.084424e+000
    endloop
  endfacet
  facet normal -7.310396e-001  5.662101e-002  6.799817e-001
    outer loop
      vertex -1.236926e+001  1.092471e+000  7.258801e+000
      vertex -1.175997e+001 -9.560784e-001  8.084424e+000
      vertex -1.141128e+001  2.751738e+000  8.150547e+000
    endloop
  endfacet
  facet normal -5.870887e-001  4.079197e-002  8.084942e-001
    outer loop
      vertex -1.141128e+001  2.751738e+000  8.150547e+000
      vertex -1.175997e+001 -9.560784e-001  8.084424e+000
      vertex -9.586791e+000  2.275430e+000  9.499435e+000
    endloop
  endfacet
  facet normal -5.490234e-001  1.971551e-001  8.122211e-001
    outer loop
      vertex -1.141128e+001  2.751738e+000  8.150547e+000
      vertex -9.586791e+000  2.275430e+000  9.499435e+000
      vertex -9.617134e+000  5.859296e+000  8.608993e+000
    endloop
  endfacet
  facet normal -4.642819e-001  2.098593e-001  8.604658e-001
    outer loop
      vertex -9.617134e+000  5.859296e+000  8.608993e+000
      vertex -9.586791e+000  2.275430e+000  9.499435e+000
      vertex -8.117319e+000  4.945525e+000  9.641109e+000
    endloop
  endfacet
  facet normal -5.204955e-001 -9.101439e-002  8.489999e-001
    outer loop
      vertex -1.160279e+001 -2.420040e+000  8.023847e+000
      vertex -1.036245e+001 -4.568368e+000  8.553954e+000
      vertex -1.175997e+001 -9.560784e-001  8.084424e+000
    endloop
  endfacet
  facet normal -5.517084e-001 -1.059126e-001  8.272849e-001
    outer loop
      vertex -1.175997e+001 -9.560784e-001  8.084424e+000
      vertex -1.036245e+001 -4.568368e+000  8.553954e+000
      vertex -9.093341e+000 -3.794113e+000  9.499435e+000
    endloop
  endfacet
  facet normal -5.761940e-001 -1.399059e-001  8.052496e-001
    outer loop
      vertex -1.175997e+001 -9.560784e-001  8.084424e+000
      vertex -9.093341e+000 -3.794113e+000  9.499435e+000
      vertex -9.820726e+000 -7.984191e-001  9.499435e+000
    endloop
  endfacet
  facet normal -3.839161e-001 -4.518645e-001  8.052496e-001
    outer loop
      vertex -5.126544e+000 -8.414433e+000  9.499435e+000
      vertex -7.475835e+000 -6.418413e+000  9.499435e+000
      vertex -6.138853e+000 -1.007598e+001  8.084424e+000
    endloop
  endfacet
  facet normal -3.280614e-001 -4.427532e-001  8.344731e-001
    outer loop
      vertex -6.138853e+000 -1.007598e+001  8.084424e+000
      vertex -7.475835e+000 -6.418413e+000  9.499435e+000
      vertex -8.088717e+000 -8.506593e+000  8.150547e+000
    endloop
  endfacet
  facet normal -4.719030e-001 -6.130061e-001  6.336649e-001
    outer loop
      vertex -6.138853e+000 -1.007598e+001  8.084424e+000
      vertex -8.088717e+000 -8.506593e+000  8.150547e+000
      vertex -7.130739e+000 -1.016586e+001  7.258801e+000
    endloop
  endfacet
  facet normal -3.509189e-001 -7.871048e-001  5.072691e-001
    outer loop
      vertex -7.130739e+000 -1.016586e+001  7.258801e+000
      vertex -6.500000e+000 -1.125833e+001  6.000000e+000
      vertex -6.138853e+000 -1.007598e+001  8.084424e+000
    endloop
  endfacet
  facet normal -5.391829e-001 -6.890376e-001  4.842612e-001
    outer loop
      vertex -6.138853e+000 -1.007598e+001  8.084424e+000
      vertex -6.500000e+000 -1.125833e+001  6.000000e+000
      vertex -5.644590e+000 -1.125833e+001  6.952425e+000
    endloop
  endfacet
  facet normal -3.351849e-001 -7.208913e-001  6.066027e-001
    outer loop
      vertex -6.138853e+000 -1.007598e+001  8.084424e+000
      vertex -5.644590e+000 -1.125833e+001  6.952425e+000
      vertex -3.705578e+000 -1.125833e+001  8.023847e+000
    endloop
  endfacet
  facet normal  3.111121e-001 -5.047596e-001  8.052496e-001
    outer loop
      vertex  6.418413e+000 -7.475835e+000  9.499435e+000
      vertex  3.794113e+000 -9.093341e+000  9.499435e+000
      vertex  7.685820e+000 -8.952046e+000  8.084424e+000
    endloop
  endfacet
  facet normal  3.111120e-001 -5.047598e-001  8.052495e-001
    outer loop
      vertex  7.685820e+000 -8.952046e+000  8.084424e+000
      vertex  3.794113e+000 -9.093341e+000  9.499435e+000
      vertex  4.543315e+000 -1.088895e+001  8.084424e+000
    endloop
  endfacet
  facet normal  3.902406e-001 -6.331409e-001  6.684644e-001
    outer loop
      vertex  7.685820e+000 -8.952046e+000  8.084424e+000
      vertex  4.543315e+000 -1.088895e+001  8.084424e+000
      vertex  7.130739e+000 -1.016586e+001  7.258801e+000
    endloop
  endfacet
  facet normal  3.888215e-001 -6.734588e-001  6.287060e-001
    outer loop
      vertex  7.130739e+000 -1.016586e+001  7.258801e+000
      vertex  4.543315e+000 -1.088895e+001  8.084424e+000
      vertex  5.238523e+000 -1.125833e+001  7.258801e+000
    endloop
  endfacet
  facet normal  4.470232e-001 -7.742673e-001  4.479735e-001
    outer loop
      vertex  7.130739e+000 -1.016586e+001  7.258801e+000
      vertex  5.238523e+000 -1.125833e+001  7.258801e+000
      vertex  6.500000e+000 -1.125833e+001  6.000000e+000
    endloop
  endfacet
  facet normal  3.994040e-001 -3.163465e-001  8.604657e-001
    outer loop
      vertex  8.117319e+000 -4.945525e+000  9.641109e+000
      vertex  6.418413e+000 -7.475835e+000  9.499435e+000
      vertex  9.617134e+000 -5.859296e+000  8.608993e+000
    endloop
  endfacet
  facet normal  4.294020e-001 -4.050546e-001  8.071831e-001
    outer loop
      vertex  9.617134e+000 -5.859296e+000  8.608993e+000
      vertex  6.418413e+000 -7.475835e+000  9.499435e+000
      vertex  7.685820e+000 -8.952046e+000  8.084424e+000
    endloop
  endfacet
  facet normal  7.369863e-002 -2.113318e-001  9.746319e-001
    outer loop
      vertex  9.617134e+000 -5.859296e+000  8.608993e+000
      vertex  7.685820e+000 -8.952046e+000  8.084424e+000
      vertex  8.088717e+000 -8.506593e+000  8.150547e+000
    endloop
  endfacet
  facet normal  1.686208e-001 -5.657256e-001  8.071690e-001
    outer loop
      vertex  4.543315e+000 -1.088895e+001  8.084424e+000
      vertex  3.794113e+000 -9.093341e+000  9.499435e+000
      vertex  9.431129e-001 -1.125833e+001  8.577631e+000
    endloop
  endfacet
  facet normal  1.277684e-001 -5.262066e-001  8.407032e-001
    outer loop
      vertex  9.431129e-001 -1.125833e+001  8.577631e+000
      vertex  3.794113e+000 -9.093341e+000  9.499435e+000
      vertex  7.984191e-001 -9.820726e+000  9.499435e+000
    endloop
  endfacet
  facet normal -9.188408e-003 -5.404078e-001  8.413530e-001
    outer loop
      vertex  9.431129e-001 -1.125833e+001  8.577631e+000
      vertex  7.984191e-001 -9.820726e+000  9.499435e+000
      vertex -1.224902e+000 -1.125833e+001  8.553954e+000
    endloop
  endfacet
  facet normal -3.883969e-002 -5.103433e-001  8.590933e-001
    outer loop
      vertex -1.224902e+000 -1.125833e+001  8.553954e+000
      vertex  7.984191e-001 -9.820726e+000  9.499435e+000
      vertex -2.275430e+000 -9.586791e+000  9.499435e+000
    endloop
  endfacet
  facet normal -1.724479e-001 -5.648374e-001  8.069822e-001
    outer loop
      vertex -1.224902e+000 -1.125833e+001  8.553954e+000
      vertex -2.275430e+000 -9.586791e+000  9.499435e+000
      vertex -3.705578e+000 -1.125833e+001  8.023847e+000
    endloop
  endfacet
  facet normal -1.224046e-001  1.372208e-001  9.829484e-001
    outer loop
      vertex -6.404895e+000  3.902220e+000  1.000000e+001
      vertex -6.418413e+000  7.475835e+000  9.499435e+000
      vertex -8.117319e+000  4.945525e+000  9.641109e+000
    endloop
  endfacet
  facet normal -1.406470e-001  1.368174e-001  9.805608e-001
    outer loop
      vertex -6.404895e+000  3.902220e+000  1.000000e+001
      vertex -4.077501e+000  6.294759e+000  1.000000e+001
      vertex -6.418413e+000  7.475835e+000  9.499435e+000
    endloop
  endfacet
  facet normal  1.860814e-001 -6.224379e-002  9.805608e-001
    outer loop
      vertex  6.404895e+000 -3.902220e+000  1.000000e+001
      vertex  9.586791e+000 -2.275430e+000  9.499435e+000
      vertex  7.463721e+000 -7.367992e-001  1.000000e+001
    endloop
  endfacet
  facet normal  1.780743e-001 -4.584773e-002  9.829484e-001
    outer loop
      vertex  6.404895e+000 -3.902220e+000  1.000000e+001
      vertex  8.117319e+000 -4.945525e+000  9.641109e+000
      vertex  9.586791e+000 -2.275430e+000  9.499435e+000
    endloop
  endfacet
  facet normal  5.912264e-001 -4.499530e-002  8.052496e-001
    outer loop
      vertex  1.175997e+001  9.560784e-001  8.084424e+000
      vertex  9.820726e+000  7.984191e-001  9.499435e+000
      vertex  9.586791e+000 -2.275430e+000  9.499435e+000
    endloop
  endfacet
  facet normal  1.924593e-001  2.437918e-002  9.810020e-001
    outer loop
      vertex  9.820726e+000  7.984191e-001  9.499435e+000
      vertex  7.044265e+000  2.574554e+000  1.000000e+001
      vertex  7.463721e+000 -7.367992e-001  1.000000e+001
    endloop
  endfacet
  facet normal  2.180418e-001 -1.659407e-002  9.757984e-001
    outer loop
      vertex  9.820726e+000  7.984191e-001  9.499435e+000
      vertex  7.463721e+000 -7.367992e-001  1.000000e+001
      vertex  9.586791e+000 -2.275430e+000  9.499435e+000
    endloop
  endfacet
  facet normal  4.568449e-001  2.815795e-001  8.438044e-001
    outer loop
      vertex  1.036245e+001  4.568368e+000  8.553954e+000
      vertex  7.475835e+000  6.418413e+000  9.499435e+000
      vertex  9.093341e+000  3.794113e+000  9.499435e+000
    endloop
  endfacet
  facet normal  4.110672e-001  4.064460e-001  8.159813e-001
    outer loop
      vertex  8.088717e+000  8.506593e+000  8.150547e+000
      vertex  7.475835e+000  6.418413e+000  9.499435e+000
      vertex  9.278443e+000  6.445925e+000  8.577631e+000
    endloop
  endfacet
  facet normal  1.678773e-001  1.087444e-001  9.797917e-001
    outer loop
      vertex  7.475835e+000  6.418413e+000  9.499435e+000
      vertex  5.229607e+000  5.375985e+000  1.000000e+001
      vertex  7.044265e+000  2.574554e+000  1.000000e+001
    endloop
  endfacet
  facet normal  1.749114e-001  1.078078e-001  9.786642e-001
    outer loop
      vertex  9.093341e+000  3.794113e+000  9.499435e+000
      vertex  7.475835e+000  6.418413e+000  9.499435e+000
      vertex  7.044265e+000  2.574554e+000  1.000000e+001
    endloop
  endfacet
  facet normal  2.084729e-001  5.061939e-002  9.767174e-001
    outer loop
      vertex  9.093341e+000  3.794113e+000  9.499435e+000
      vertex  7.044265e+000  2.574554e+000  1.000000e+001
      vertex  9.820726e+000  7.984191e-001  9.499435e+000
    endloop
  endfacet
  facet normal  1.005566e-001  1.650483e-001  9.811460e-001
    outer loop
      vertex  5.126544e+000  8.414433e+000  9.499435e+000
      vertex  2.379160e+000  7.112637e+000  1.000000e+001
      vertex  5.229607e+000  5.375985e+000  1.000000e+001
    endloop
  endfacet
  facet normal  1.406810e-001  1.655798e-001  9.761108e-001
    outer loop
      vertex  5.126544e+000  8.414433e+000  9.499435e+000
      vertex  5.229607e+000  5.375985e+000  1.000000e+001
      vertex  7.475835e+000  6.418413e+000  9.499435e+000
    endloop
  endfacet
  facet normal  2.338673e-001  5.232840e-001  8.194388e-001
    outer loop
      vertex  2.275430e+000  9.586791e+000  9.499435e+000
      vertex  6.138853e+000  1.007598e+001  8.084424e+000
      vertex  3.705578e+000  1.125833e+001  8.023847e+000
    endloop
  endfacet
  facet normal  2.019658e-002  2.045901e-001  9.786393e-001
    outer loop
      vertex -7.984191e-001  9.820726e+000  9.499435e+000
      vertex -9.425080e-001  7.440543e+000  1.000000e+001
      vertex  2.379160e+000  7.112637e+000  1.000000e+001
    endloop
  endfacet
  facet normal  1.513627e-002  1.988866e-001  9.799057e-001
    outer loop
      vertex  2.275430e+000  9.586791e+000  9.499435e+000
      vertex -7.984191e-001  9.820726e+000  9.499435e+000
      vertex  2.379160e+000  7.112637e+000  1.000000e+001
    endloop
  endfacet
  facet normal  8.262858e-002  2.009485e-001  9.761108e-001
    outer loop
      vertex  2.275430e+000  9.586791e+000  9.499435e+000
      vertex  2.379160e+000  7.112637e+000  1.000000e+001
      vertex  5.126544e+000  8.414433e+000  9.499435e+000
    endloop
  endfacet
  facet normal -2.658966e-001  7.764829e-001  5.712908e-001
    outer loop
      vertex -5.238523e+000  1.125833e+001  7.258801e+000
      vertex -4.543315e+000  1.088895e+001  8.084424e+000
      vertex -3.322567e+000  1.125833e+001  8.150547e+000
    endloop
  endfacet
  facet normal -6.659414e-002  1.822090e-001  9.810020e-001
    outer loop
      vertex -3.794113e+000  9.093341e+000  9.499435e+000
      vertex -4.077501e+000  6.294759e+000  1.000000e+001
      vertex -9.425080e-001  7.440543e+000  1.000000e+001
    endloop
  endfacet
  facet normal -5.061938e-002  2.084729e-001  9.767173e-001
    outer loop
      vertex -3.794113e+000  9.093341e+000  9.499435e+000
      vertex -9.425080e-001  7.440543e+000  1.000000e+001
      vertex -7.984191e-001  9.820726e+000  9.499435e+000
    endloop
  endfacet
  facet normal -6.012126e-001  6.188217e-001  5.055721e-001
    outer loop
      vertex -7.685820e+000  8.952046e+000  8.084424e+000
      vertex -7.130739e+000  1.016586e+001  7.258801e+000
      vertex -8.088717e+000  8.506593e+000  8.150547e+000
    endloop
  endfacet
  facet normal -1.147369e-001  1.861532e-001  9.757984e-001
    outer loop
      vertex -6.418413e+000  7.475835e+000  9.499435e+000
      vertex -4.077501e+000  6.294759e+000  1.000000e+001
      vertex -3.794113e+000  9.093341e+000  9.499435e+000
    endloop
  endfacet
  facet normal  9.033839e-001 -2.854124e-002  4.278819e-001
    outer loop
      vertex  1.300000e+001  7.764611e-015  6.000000e+000
      vertex  1.257230e+001  7.408063e-001  6.952425e+000
      vertex  1.236926e+001 -1.092471e+000  7.258801e+000
    endloop
  endfacet
  facet normal  4.387796e-001  2.424181e-001  8.652779e-001
    outer loop
      vertex  1.036245e+001  4.568368e+000  8.553954e+000
      vertex  9.278443e+000  6.445925e+000  8.577631e+000
      vertex  7.475835e+000  6.418413e+000  9.499435e+000
    endloop
  endfacet
  facet normal  2.254921e-001  5.483852e-001  8.052496e-001
    outer loop
      vertex  6.138853e+000  1.007598e+001  8.084424e+000
      vertex  2.275430e+000  9.586791e+000  9.499435e+000
      vertex  5.126544e+000  8.414433e+000  9.499435e+000
    endloop
  endfacet
  facet normal -1.635938e-001  3.774955e-001  9.114462e-001
    outer loop
      vertex -4.543315e+000  1.088895e+001  8.084424e+000
      vertex -9.431129e-001  1.125833e+001  8.577631e+000
      vertex -3.322567e+000  1.125833e+001  8.150547e+000
    endloop
  endfacet
  facet normal  7.599815e-001  2.437510e-002  6.494875e-001
    outer loop
      vertex  1.257230e+001  7.408063e-001  6.952425e+000
      vertex  1.160279e+001  2.420040e+000  8.023847e+000
      vertex  1.236926e+001 -1.092471e+000  7.258801e+000
    endloop
  endfacet
  facet normal  9.134252e-001  1.142355e-001  3.906465e-001
    outer loop
      vertex  1.236926e+001 -1.092471e+000  7.258801e+000
      vertex  1.160279e+001  2.420040e+000  8.023847e+000
      vertex  1.175997e+001  9.560784e-001  8.084424e+000
    endloop
  endfacet
  facet normal  7.310396e-001 -5.662101e-002  6.799817e-001
    outer loop
      vertex  1.236926e+001 -1.092471e+000  7.258801e+000
      vertex  1.175997e+001  9.560784e-001  8.084424e+000
      vertex  1.141128e+001 -2.751738e+000  8.150547e+000
    endloop
  endfacet
  facet normal  5.870887e-001 -4.079197e-002  8.084942e-001
    outer loop
      vertex  1.141128e+001 -2.751738e+000  8.150547e+000
      vertex  1.175997e+001  9.560784e-001  8.084424e+000
      vertex  9.586791e+000 -2.275430e+000  9.499435e+000
    endloop
  endfacet
  facet normal  5.490234e-001 -1.971551e-001  8.122211e-001
    outer loop
      vertex  1.141128e+001 -2.751738e+000  8.150547e+000
      vertex  9.586791e+000 -2.275430e+000  9.499435e+000
      vertex  9.617134e+000 -5.859296e+000  8.608993e+000
    endloop
  endfacet
  facet normal  4.642819e-001 -2.098593e-001  8.604658e-001
    outer loop
      vertex  9.617134e+000 -5.859296e+000  8.608993e+000
      vertex  9.586791e+000 -2.275430e+000  9.499435e+000
      vertex  8.117319e+000 -4.945525e+000  9.641109e+000
    endloop
  endfacet
  facet normal  5.204955e-001  9.101439e-002  8.489999e-001
    outer loop
      vertex  1.160279e+001  2.420040e+000  8.023847e+000
      vertex  1.036245e+001  4.568368e+000  8.553954e+000
      vertex  1.175997e+001  9.560784e-001  8.084424e+000
    endloop
  endfacet
  facet normal  5.517084e-001  1.059126e-001  8.272849e-001
    outer loop
      vertex  1.175997e+001  9.560784e-001  8.084424e+000
      vertex  1.036245e+001  4.568368e+000  8.553954e+000
      vertex  9.093341e+000  3.794113e+000  9.499435e+000
    endloop
  endfacet
  facet normal  5.761940e-001  1.399059e-001  8.052496e-001
    outer loop
      vertex  1.175997e+001  9.560784e-001  8.084424e+000
      vertex  9.093341e+000  3.794113e+000  9.499435e+000
      vertex  9.820726e+000  7.984191e-001  9.499435e+000
    endloop
  endfacet
  facet normal  3.839161e-001  4.518645e-001  8.052496e-001
    outer loop
      vertex  5.126544e+000  8.414433e+000  9.499435e+000
      vertex  7.475835e+000  6.418413e+000  9.499435e+000
      vertex  6.138853e+000  1.007598e+001  8.084424e+000
    endloop
  endfacet
  facet normal  3.280614e-001  4.427532e-001  8.344731e-001
    outer loop
      vertex  6.138853e+000  1.007598e+001  8.084424e+000
      vertex  7.475835e+000  6.418413e+000  9.499435e+000
      vertex  8.088717e+000  8.506593e+000  8.150547e+000
    endloop
  endfacet
  facet normal  4.719030e-001  6.130061e-001  6.336649e-001
    outer loop
      vertex  6.138853e+000  1.007598e+001  8.084424e+000
      vertex  8.088717e+000  8.506593e+000  8.150547e+000
      vertex  7.130739e+000  1.016586e+001  7.258801e+000
    endloop
  endfacet
  facet normal  3.509189e-001  7.871048e-001  5.072691e-001
    outer loop
      vertex  7.130739e+000  1.016586e+001  7.258801e+000
      vertex  6.500000e+000  1.125833e+001  6.000000e+000
      vertex  6.138853e+000  1.007598e+001  8.084424e+000
    endloop
  endfacet
  facet normal  5.391829e-001  6.890376e-001  4.842612e-001
    outer loop
      vertex  6.138853e+000  1.007598e+001  8.084424e+000
      vertex  6.500000e+000  1.125833e+001  6.000000e+000
      vertex  5.644590e+000  1.125833e+001  6.952425e+000
    endloop
  endfacet
  facet normal  3.351849e-001  7.208913e-001  6.066027e-001
    outer loop
      vertex  6.138853e+000  1.007598e+001  8.084424e+000
      vertex  5.644590e+000  1.125833e+001  6.952425e+000
      vertex  3.705578e+000  1.125833e+001  8.023847e+000
    endloop
  endfacet
  facet normal -3.111121e-001  5.047596e-001  8.052496e-001
    outer loop
      vertex -6.418413e+000  7.475835e+000  9.499435e+000
      vertex -3.794113e+000  9.093341e+000  9.499435e+000
      vertex -7.685820e+000  8.952046e+000  8.084424e+000
    endloop
  endfacet
  facet normal -3.111120e-001  5.047598e-001  8.052495e-001
    outer loop
      vertex -7.685820e+000  8.952046e+000  8.084424e+000
      vertex -3.794113e+000  9.093341e+000  9.499435e+000
      vertex -4.543315e+000  1.088895e+001  8.084424e+000
    endloop
  endfacet
  facet normal -3.902406e-001  6.331409e-001  6.684644e-001
    outer loop
      vertex -7.685820e+000  8.952046e+000  8.084424e+000
      vertex -4.543315e+000  1.088895e+001  8.084424e+000
      vertex -7.130739e+000  1.016586e+001  7.258801e+000
    endloop
  endfacet
  facet normal -3.888215e-001  6.734588e-001  6.287060e-001
    outer loop
      vertex -7.130739e+000  1.016586e+001  7.258801e+000
      vertex -4.543315e+000  1.088895e+001  8.084424e+000
      vertex -5.238523e+000  1.125833e+001  7.258801e+000
    endloop
  endfacet
  facet normal -4.470232e-001  7.742673e-001  4.479735e-001
    outer loop
      vertex -7.130739e+000  1.016586e+001  7.258801e+000
      vertex -5.238523e+000  1.125833e+001  7.258801e+000
      vertex -6.500000e+000  1.125833e+001  6.000000e+000
    endloop
  endfacet
  facet normal -3.994040e-001  3.163465e-001  8.604657e-001
    outer loop
      vertex -8.117319e+000  4.945525e+000  9.641109e+000
      vertex -6.418413e+000  7.475835e+000  9.499435e+000
      vertex -9.617134e+000  5.859296e+000  8.608993e+000
    endloop
  endfacet
  facet normal -4.294020e-001  4.050546e-001  8.071831e-001
    outer loop
      vertex -9.617134e+000  5.859296e+000  8.608993e+000
      vertex -6.418413e+000  7.475835e+000  9.499435e+000
      vertex -7.685820e+000  8.952046e+000  8.084424e+000
    endloop
  endfacet
  facet normal -7.369863e-002  2.113318e-001  9.746319e-001
    outer loop
      vertex -9.617134e+000  5.859296e+000  8.608993e+000
      vertex -7.685820e+000  8.952046e+000  8.084424e+000
      vertex -8.088717e+000  8.506593e+000  8.150547e+000
    endloop
  endfacet
  facet normal -1.686208e-001  5.657256e-001  8.071690e-001
    outer loop
      vertex -4.543315e+000  1.088895e+001  8.084424e+000
      vertex -3.794113e+000  9.093341e+000  9.499435e+000
      vertex -9.431129e-001  1.125833e+001  8.577631e+000
    endloop
  endfacet
  facet normal -1.277684e-001  5.262066e-001  8.407032e-001
    outer loop
      vertex -9.431129e-001  1.125833e+001  8.577631e+000
      vertex -3.794113e+000  9.093341e+000  9.499435e+000
      vertex -7.984191e-001  9.820726e+000  9.499435e+000
    endloop
  endfacet
  facet normal  9.188408e-003  5.404078e-001  8.413530e-001
    outer loop
      vertex -9.431129e-001  1.125833e+001  8.577631e+000
      vertex -7.984191e-001  9.820726e+000  9.499435e+000
      vertex  1.224902e+000  1.125833e+001  8.553954e+000
    endloop
  endfacet
  facet normal  3.883969e-002  5.103433e-001  8.590933e-001
    outer loop
      vertex  1.224902e+000  1.125833e+001  8.553954e+000
      vertex -7.984191e-001  9.820726e+000  9.499435e+000
      vertex  2.275430e+000  9.586791e+000  9.499435e+000
    endloop
  endfacet
  facet normal  1.724479e-001  5.648374e-001  8.069822e-001
    outer loop
      vertex  1.224902e+000  1.125833e+001  8.553954e+000
      vertex  2.275430e+000  9.586791e+000  9.499435e+000
      vertex  3.705578e+000  1.125833e+001  8.023847e+000
    endloop
  endfacet
  facet normal  5.079198e-016  3.573464e-016 -1.000000e+000
    outer loop
      vertex  6.500000e+000  1.125833e+001  6.436425e-015
      vertex  1.300000e+001  9.908690e-015  5.714780e-015
      vertex -6.500000e+000  1.125833e+001 -1.665335e-016
    endloop
  endfacet
  facet normal  5.079198e-016  3.573464e-016 -1.000000e+000
    outer loop
      vertex -6.500000e+000  1.125833e+001 -1.665335e-016
      vertex  1.300000e+001  9.908690e-015  5.714780e-015
      vertex -1.300000e+001  8.911495e-015 -7.491137e-015
    endloop
  endfacet
  facet normal  5.079198e-016  3.573464e-016 -1.000000e+000
    outer loop
      vertex  1.300000e+001  9.908690e-015  5.714780e-015
      vertex  6.500000e+000 -1.125833e+001 -1.609823e-015
      vertex -1.300000e+001  8.911495e-015 -7.491137e-015
    endloop
  endfacet
  facet normal  5.079198e-016  3.573464e-016 -1.000000e+000
    outer loop
      vertex -1.300000e+001  8.911495e-015 -7.491137e-015
      vertex  6.500000e+000 -1.125833e+001 -1.609823e-015
      vertex -6.500000e+000 -1.125833e+001 -8.212781e-015
    endloop
  endfacet
endsolid CATIA STL
